<svg xmlns="http://www.w3.org/2000/svg" xmlns:xlink="http://www.w3.org/1999/xlink" version="1.0" x="0" y="0" width="2400" height="769.28124456292" viewBox="43.234393463134765 84.36732803344727 253.53121307373047 81.26533630371094" preserveAspectRatio="xMidYMid meet" color-interpolation-filters="sRGB"><g><defs><linearGradient id="92" x1="0%" y1="0%" x2="100%" y2="0%"><stop offset="0%" stop-color="#fa71cd"></stop> <stop offset="100%" stop-color="#9b59b6"></stop></linearGradient><linearGradient id="93" x1="0%" y1="0%" x2="100%" y2="0%"><stop offset="0%" stop-color="#f9d423"></stop> <stop offset="100%" stop-color="#f83600"></stop></linearGradient><linearGradient id="94" x1="0%" y1="0%" x2="100%" y2="0%"><stop offset="0%" stop-color="#0064d2"></stop> <stop offset="100%" stop-color="#1cb0f6"></stop></linearGradient><linearGradient id="95" x1="0%" y1="0%" x2="100%" y2="0%"><stop offset="0%" stop-color="#f00978"></stop> <stop offset="100%" stop-color="#3f51b1"></stop></linearGradient><linearGradient id="96" x1="0%" y1="0%" x2="100%" y2="0%"><stop offset="0%" stop-color="#7873f5"></stop> <stop offset="100%" stop-color="#ec77ab"></stop></linearGradient><linearGradient id="97" x1="0%" y1="0%" x2="100%" y2="0%"><stop offset="0%" stop-color="#f9d423"></stop> <stop offset="100%" stop-color="#e14fad"></stop></linearGradient><linearGradient id="98" x1="0%" y1="0%" x2="100%" y2="0%"><stop offset="0%" stop-color="#009efd"></stop> <stop offset="100%" stop-color="#2af598"></stop></linearGradient><linearGradient id="99" x1="0%" y1="0%" x2="100%" y2="0%"><stop offset="0%" stop-color="#ffcc00"></stop> <stop offset="100%" stop-color="#00b140"></stop></linearGradient><linearGradient id="100" x1="0%" y1="0%" x2="100%" y2="0%"><stop offset="0%" stop-color="#d51007"></stop> <stop offset="100%" stop-color="#ff8177"></stop></linearGradient><linearGradient id="102" x1="0%" y1="0%" x2="100%" y2="0%"><stop offset="0%" stop-color="#a2b6df"></stop> <stop offset="100%" stop-color="#0c3483"></stop></linearGradient><linearGradient id="103" x1="0%" y1="0%" x2="100%" y2="0%"><stop offset="0%" stop-color="#7ac5d8"></stop> <stop offset="100%" stop-color="#eea2a2"></stop></linearGradient><linearGradient id="104" x1="0%" y1="0%" x2="100%" y2="0%"><stop offset="0%" stop-color="#00ecbc"></stop> <stop offset="100%" stop-color="#007adf"></stop></linearGradient><linearGradient id="105" x1="0%" y1="0%" x2="100%" y2="0%"><stop offset="0%" stop-color="#b88746"></stop> <stop offset="100%" stop-color="#fdf5a6"></stop></linearGradient></defs><g fill="#444" class="icon-text-wrapper icon-svg-group iconsvg" transform="translate(45.719993591308594,86.85293197631836)"><g class="iconsvg-imagesvg" transform="translate(0,0)"><g><rect fill="#444" fill-opacity="0" stroke-width="2" x="0" y="0" width="59.99999999999999" height="76.2941393385298" class="image-rect"></rect> <svg filter="url(#colors7982130171)" x="0" y="0" width="59.99999999999999" height="76.2941393385298" filtersec="colorsf8969627978" class="image-svg-svg primary" style="overflow: visible;"><svg xmlns="http://www.w3.org/2000/svg" viewBox="0 0 11.010000228881836 14"><g><g><g><path fill="#5993d4" d="M6.61 1.27l-2.2 1.27 2.2 1.28 2.2-1.28-2.2-1.27z"></path><path fill="#5993d4" d="M4.41 0L2.2 1.27l2.21 1.27 2.2-1.27L4.41 0z"></path><path fill="#203d88" d="M4.41 5.09L2.2 3.82V1.27l2.21 1.27v2.55z"></path><path fill="#5993d4" d="M8.81 7.64l-4.4 2.54 2.2 1.28 4.4-2.55-2.2-1.27z"></path><path fill="#203d88" d="M4.41 10.18h-.02.02V7.64L2.2 6.36v5.1L6.61 14v-2.54l-2.2-1.28z"></path><path fill="#f7b634" d="M6.61 11.46V14l4.4-2.54V8.91l-4.4 2.55z"></path><path fill="#5993d4" d="M2.2 3.82L0 5.1l2.2 1.27L4.41 5.1 2.2 3.82z"></path><path fill="#203d88" d="M2.2 8.91L0 7.64V5.1l2.2 1.27v2.54z"></path><path d="M8.81 2.54l-2.2 1.28V1.27L4.4 2.55v2.54L2.2 6.37v2.54l2.2-1.27v2.54l2.2-1.27V6.36l2.2-1.27zM4.4 7.64z" fill="#f7b634"></path></g></g></g></svg></svg> <defs><filter id="colors7982130171"><feColorMatrix type="matrix" values="0 0 0 0 0.265625  0 0 0 0 0.265625  0 0 0 0 0.265625  0 0 0 1 0" class="icon-feColorMatrix "></feColorMatrix></filter> <filter id="colorsf8969627978"><feColorMatrix type="matrix" values="0 0 0 0 0.99609375  0 0 0 0 0.99609375  0 0 0 0 0.99609375  0 0 0 1 0" class="icon-fecolormatrix"></feColorMatrix></filter> <filter id="colorsb9556268292"><feColorMatrix type="matrix" values="0 0 0 0 0  0 0 0 0 0  0 0 0 0 0  0 0 0 1 0" class="icon-fecolormatrix"></feColorMatrix></filter></defs></g></g> <g transform="translate(60,18.015302658081055)"><g fill-rule="" class="tp-name iconsvg-namesvg" transform="translate(0,0)"><g transform="scale(1)"><g><path d="M18.92-16.48L17.65-21.57 12.88-21.57Q12.82-18.49 12.82-12.17L12.82-12.17 12.82-10.66Q12.82-4.47 12.88-1.36L12.88-1.36 16.18-1.08 16.18 0 5.18 0 5.18-1.08 8.47-1.36Q8.5-4.41 8.5-10.66L8.5-10.66 8.5-12.17Q8.5-18.46 8.47-21.57L8.47-21.57 3.7-21.57 2.4-16.48 0.68-16.48 0.89-22.86 20.46-22.86 20.64-16.48 18.92-16.48ZM31.34-19.1L28.07-8.53 34.72-8.53 31.34-19.1ZM34.08-22.95L41.44-1.36 44-1.08 44 0 34.05 0 34.05-1.08 37.04-1.42 35.09-7.39 27.73-7.39 25.91-1.45 28.93-1.08 28.93 0 21.72 0 21.72-1.08 24.37-1.45 31.4-22.95 34.08-22.95ZM58.23-14.85L65.69-1.29 68-1.08 68 0 58.57 0 58.57-1.08 61.04-1.32 55.55-11.59 52.84-8.29Q52.84-3.82 52.9-1.36L52.9-1.36 55.61-1.08 55.61 0 45.72 0 45.72-1.08 48.65-1.36Q48.71-4.41 48.71-10.66L48.71-10.66 48.71-12.17Q48.71-18.36 48.65-21.48L48.65-21.48 45.72-21.75 45.72-22.86 55.86-22.86 55.86-21.75 52.9-21.44Q52.84-18.39 52.84-12.17L52.84-12.17 52.84-9.98 61.84-21.32 58.88-21.75 58.88-22.86 66.8-22.86 66.8-21.75 63.59-21.32 58.23-14.85ZM77.86-19.1L74.59-8.53 81.25-8.53 77.86-19.1ZM80.6-22.95L87.97-1.36 90.52-1.08 90.52 0 80.57 0 80.57-1.08 83.56-1.42 81.62-7.39 74.26-7.39 72.44-1.45 75.46-1.08 75.46 0 68.25 0 68.25-1.08 70.9-1.45 77.92-22.95 80.6-22.95ZM106.11-1.26L107.59-6.53 109.23-6.53 109.04 0 91.63 0 91.63-1.29 104.14-21.57 95.24-21.57 93.85-16.48 92.03-16.48 92.37-22.86 108.86-22.86 108.86-21.51 96.32-1.26 106.11-1.26ZM120.07-19.1L116.81-8.53 123.46-8.53 120.07-19.1ZM122.81-22.95L130.18-1.36 132.74-1.08 132.74 0 122.78 0 122.78-1.08 125.77-1.42 123.83-7.39 116.47-7.39 114.65-1.45 117.67-1.08 117.67 0 110.46 0 110.46-1.08 113.11-1.45 120.13-22.95 122.81-22.95ZM158.74-22.86L166.23-22.86 166.23-21.75 163.33-21.35 157.32 0.12 155.1 0.12 149.62-17.47 144.32 0.12 142.07 0.12 135.79-21.51 133.41-21.75 133.41-22.86 143.24-22.86 143.24-21.75 140.25-21.44 144.57-5.02 149.44-21.38 146.35-21.75 146.35-22.86 155.97-22.86 155.97-21.75 152.64-21.38 157.45-4.9 161.73-21.35 158.74-21.75 158.74-22.86ZM176.58-19.1L173.31-8.53 179.97-8.53 176.58-19.1ZM179.32-22.95L186.69-1.36 189.24-1.08 189.24 0 179.29 0 179.29-1.08 182.28-1.42 180.34-7.39 172.98-7.39 171.16-1.45 174.18-1.08 174.18 0 166.97 0 166.97-1.08 169.62-1.45 176.64-22.95 179.32-22.95Z" transform="translate(-0.6800000071525574, 22.950000762939453)"></path></g> <g fill="#444" transform="translate(191.5600128173828,0)"><g transform="scale(1)"><path d="" transform="translate(0, 22.950000762939453)"></path></g></g></g></g> <g fill-rule="" class="tp-slogan iconsvg-slogansvg" fill="#444" transform="translate(46.190040588378906,29.070003509521484)"> <g transform="scale(1, 1)"><g transform="scale(1.0172320556640626)"><path d="M9.47 0.61L8.68 0.41Q8.35 0.32 8.35-0.01L8.35-0.01Q8.35-0.34 8.68-0.41L8.68-0.41L9.29-0.54L9.29-2.83L2.72-2.83L2.72 0.12Q2.72 0.78 2.08 0.83L2.08 0.83Q1.42 0.89 1.40 0.24L1.40 0.24L1.25-3.49Q1.21-4.25 1.97-4.25L1.97-4.25L2.51-4.25Q2.72-4.25 2.72-4.03L2.72-4.03L2.72-3.82L9.14-4.16Q10.79-4.25 10.72-2.60L10.72-2.60L10.62-0.24Q10.56 0.90 9.47 0.61L9.47 0.61ZM8.03-4.46L4.09-4.46Q2.70-4.46 2.59-5.84L2.59-5.84L2.54-6.52Q2.50-7.25 3.22-7.25L3.22-7.25L3.80-7.25Q3.95-7.25 3.95-7.10L3.95-7.10L3.95-6.95L8.24-7.18Q9.64-7.25 9.53-5.86L9.53-5.86L9.53-5.84Q9.42-4.46 8.03-4.46L8.03-4.46ZM10.48-7.52L1.48-7.52Q1.01-7.52 0.88-7.99L0.88-7.99Q0.74-8.45 1.24-8.47L1.24-8.47L5.28-8.65Q5.08-8.92 5.08-9.24L5.08-9.24Q5.08-9.64 5.34-9.89L5.34-9.89Q5.62-10.14 5.98-10.14L5.98-10.14Q6.36-10.14 6.62-9.89L6.62-9.89Q6.88-9.62 6.88-9.24L6.88-9.24Q6.88-8.96 6.71-8.72L6.71-8.72L10.48-8.89Q11.17-8.93 11.17-8.23L11.17-8.23Q11.17-7.52 10.48-7.52L10.48-7.52ZM6.91-0.01L5.04-0.01Q3.78-0.01 3.67-1.27L3.67-1.27L3.62-1.82Q3.58-2.53 4.27-2.53L4.27-2.53L4.85-2.53Q4.98-2.53 4.98-2.40L4.98-2.40L4.98-2.26L7.13-2.42Q8.39-2.53 8.28-1.27L8.28-1.27Q8.17-0.01 6.91-0.01L6.91-0.01ZM3.95-6.04L3.95-5.40L8.17-5.58L8.17-6.04L3.95-6.04ZM4.98-1.43L4.98-0.84L6.97-1.00L6.97-1.43L4.98-1.43ZM21.54 0.08L21.54 0.08Q20.48-2.17 19.92-4.52L19.92-4.52L17.93-4.52Q17.76-3.04 17.30-1.75L17.30-1.75Q17.09-1.16 16.79-0.59Q16.50-0.01 16.12 0.56L16.12 0.56Q15.90 0.88 15.58 0.67L15.58 0.67Q15.26 0.46 15.41 0.11L15.41 0.11Q15.72-0.62 15.93-1.36Q16.14-2.10 16.25-2.86L16.25-2.86Q16.50-4.55 16.50-6.76L16.50-6.76L16.50-8.70Q16.50-9.43 17.24-9.43L17.24-9.43L17.80-9.43Q17.98-9.43 17.98-9.25L17.98-9.25L17.98-9.06L21.36-9.31Q23.05-9.43 22.97-7.74L22.97-7.74L22.87-5.51Q22.82-4.52 21.84-4.52L21.84-4.52L20.86-4.52Q21.70-2.58 22.87-0.86L22.87-0.86Q23.36-0.13 22.67 0.37L22.67 0.37Q21.91 0.89 21.54 0.08ZM17.98-7.91L17.98-5.64L21.59-5.96L21.59-7.91L17.98-7.91ZM13.38-0.19L13.38-0.19Q12.65-0.68 13.22-1.38L13.22-1.38Q14.11-2.46 14.84-3.68L14.84-3.68Q15.07-4.06 15.48-3.86L15.48-3.86Q15.89-3.66 15.72-3.24L15.72-3.24Q15.47-2.54 15.17-1.86Q14.88-1.18 14.53-0.48L14.53-0.48Q14.14 0.34 13.38-0.19ZM14.23-7.20L14.23-7.20Q13.75-7.20 13.43-7.52L13.43-7.52Q13.10-7.85 13.10-8.33L13.10-8.33Q13.10-8.82 13.43-9.14L13.43-9.14Q13.76-9.46 14.23-9.46L14.23-9.46Q14.71-9.46 15.05-9.14L15.05-9.14Q15.37-8.82 15.37-8.33L15.37-8.33Q15.37-7.85 15.05-7.52L15.05-7.52Q14.72-7.20 14.23-7.20ZM14.38-4.67L14.38-4.67Q13.98-4.67 13.67-4.98L13.67-4.98Q13.36-5.29 13.36-5.69L13.36-5.69Q13.36-6.12 13.67-6.41L13.67-6.41Q13.98-6.70 14.38-6.70L14.38-6.70Q14.80-6.70 15.10-6.41L15.10-6.41Q15.40-6.12 15.40-5.69L15.40-5.69Q15.40-5.28 15.10-4.98L15.10-4.98Q14.78-4.67 14.38-4.67ZM33.28 0.67L32.23 0.46Q31.98 0.41 31.98 0.16L31.98 0.16L31.98-0.11L29.00-0.11L29.00 0.08Q29.00 0.28 28.82 0.29L28.82 0.29L28.40 0.32Q27.80 0.37 27.77-0.22L27.77-0.22L27.58-3L27.29-2.81Q27.07-2.69 26.94-2.87L26.94-2.87L26.78-3.05L26.78 0.19Q26.78 0.79 26.18 0.86L26.18 0.86Q25.57 0.91 25.56 0.32L25.56 0.32L25.37-5.95Q25.36-6.67 26.06-6.67L26.06-6.67L26.59-6.67Q26.78-6.67 26.78-6.48L26.78-6.48L26.78-6.28L27.84-6.32Q27.58-6.59 27.58-6.96L27.58-6.96Q27.58-7.32 27.83-7.57L27.83-7.57Q28.08-7.82 28.45-7.82L28.45-7.82Q28.81-7.82 29.06-7.57L29.06-7.57Q29.32-7.32 29.32-6.96L29.32-6.96Q29.32-6.62 29.11-6.38L29.11-6.38L30.82-6.47Q30.97-6.86 31.07-7.22Q31.16-7.58 31.22-7.90L31.22-7.90L25.50-7.90Q25.03-7.90 24.90-8.36L24.90-8.36Q24.77-8.82 25.26-8.84L25.26-8.84L28.94-9.01L28.94-9.12Q28.94-9.55 29.23-9.82L29.23-9.82Q29.53-10.09 29.92-10.09L29.92-10.09Q30.34-10.09 30.61-9.82L30.61-9.82Q30.89-9.54 30.89-9.11L30.89-9.11L34.55-9.26Q35.24-9.30 35.24-8.60L35.24-8.60Q35.24-7.90 34.55-7.90L34.55-7.90L31.87-7.90L32.45-7.75Q33.02-7.60 32.63-7.16L32.63-7.16Q32.30-6.82 31.96-6.53L31.96-6.53L33.38-6.60Q34.80-6.67 34.75-5.24L34.75-5.24L34.60-0.40Q34.56 0.92 33.28 0.67L33.28 0.67ZM28.01-3.30L28.01-3.30L29.00-3.29L29.00-2.93L32.62-3.29L32.39-0.31L33.36-0.58L33.36-4.82Q33.36-5.34 33.01-5.34L33.01-5.34L28.94-5.32L29.93-4.73Q29.23-4.13 28.01-3.30ZM31.56-3.24L31.56-3.24Q31.16-3.24 30.85-3.53L30.85-3.53Q30.55-3.82 30.55-4.22L30.55-4.22Q30.55-4.66 30.85-4.94L30.85-4.94Q31.16-5.23 31.56-5.23L31.56-5.23Q31.98-5.23 32.27-4.94L32.27-4.94Q32.56-4.64 32.56-4.22L32.56-4.22Q32.56-3.82 32.27-3.53L32.27-3.53Q31.98-3.24 31.56-3.24ZM29.00-2.00L29.00-1.02L31.18-1.33L31.18-2.00L29.00-2.00ZM28.20-5.32L28.20-5.32L26.78-5.32L26.78-3.38Q27.36-4.00 27.68-4.46L27.68-4.46Q27.95-4.85 28.20-5.32ZM41.72 0.70L40.07 0.38Q39.72 0.32 39.72-0.04L39.72-0.04Q39.72-0.38 40.07-0.44L40.07-0.44L41.30-0.67L41.30-0.92L38.16-0.92Q37.76-0.92 37.63-1.32L37.63-1.32Q37.50-1.70 37.92-1.73L37.92-1.73L41.30-1.90L41.30-2.41L37.26-2.41Q36.84-2.41 36.71-2.83L36.71-2.83Q36.59-3.24 37.02-3.26L37.02-3.26L41.30-3.44L41.30-3.94L38.15-3.94Q37.75-3.94 37.62-4.33L37.62-4.33Q37.49-4.73 37.91-4.75L37.91-4.75L41.30-4.90L41.30-5.36L39.38-5.36Q38.16-5.36 38.05-6.59L38.05-6.59L38.02-7.06Q37.94-7.81 38.71-7.81L38.71-7.81L39.31-7.81Q39.47-7.81 39.47-7.66L39.47-7.66L39.47-7.49L41.30-7.57L41.30-8.03L37.52-8.03Q37.07-8.03 36.95-8.47L36.95-8.47Q36.83-8.92 37.28-8.94L37.28-8.94L41.30-9.11L41.30-9.50Q41.30-9.90 41.70-9.86L41.70-9.86L42.52-9.80Q42.82-9.79 42.82-9.48L42.82-9.48L42.80-9.18L46.43-9.34Q47.10-9.37 47.10-8.70L47.10-8.70Q47.10-8.03 46.43-8.03L46.43-8.03L42.78-8.03L42.77-7.64L44.96-7.75Q46.19-7.80 46.08-6.59L46.08-6.59Q45.97-5.36 44.75-5.36L44.75-5.36L42.73-5.36L42.72-4.96L45.73-5.08Q46.46-5.11 46.43-4.38L46.43-4.38L46.39-3.65L46.87-3.67Q47.35-3.68 47.35-3.20L47.35-3.20L47.35-2.93Q47.35-2.41 46.85-2.41L46.85-2.41L46.33-2.41L46.27-1.14Q46.25-0.46 45.59-0.37L45.59-0.37L45.24-0.31Q44.92-0.26 44.92-0.60L44.92-0.60L44.92-0.92L42.64-0.92L42.62-0.04Q42.59 0.85 41.72 0.70L41.72 0.70ZM39.46-6.73L39.46-6.16L41.30-6.24L41.30-6.73L39.46-6.73ZM42.66-2.41L42.65-1.96L44.92-2.08L44.92-2.41L42.66-2.41ZM42.70-3.94L42.68-3.50L44.92-3.59L44.92-3.94L42.70-3.94ZM42.76-6.73L42.74-6.31L44.68-6.40L44.68-6.73L42.76-6.73ZM55.57 0.26L55.57-2.71Q55.12-2.10 54.58-1.49Q54.04-0.88 53.39-0.25L53.39-0.25Q53.12-0.01 52.86-0.24L52.86-0.24Q52.60-0.49 52.81-0.78L52.81-0.78Q53.39-1.54 53.85-2.27Q54.31-3.01 54.67-3.74L54.67-3.74L53.76-3.74Q53.22-3.74 53.10-4.27L53.10-4.27Q52.98-4.78 53.51-4.84L53.51-4.84L55.57-4.99L55.57-6.64L54.26-6.64Q54.12-6.36 53.96-6.09Q53.81-5.82 53.64-5.56L53.64-5.56Q53.46-5.28 53.18-5.45L53.18-5.45Q52.91-5.60 52.99-5.90L52.99-5.90Q53.39-7.13 53.60-8.48L53.60-8.48Q53.72-9.24 54.47-9.08L54.47-9.08L54.62-9.05Q55.22-8.93 55.01-8.35L55.01-8.35L54.79-7.78L55.57-7.86L55.57-9.04Q55.57-9.78 56.32-9.66L56.32-9.66Q57.06-9.54 57.04-8.80L57.04-8.80L57.01-8.00L58.12-8.11Q58.88-8.18 58.88-7.42L58.88-7.42Q58.88-6.64 58.12-6.64L58.12-6.64L56.98-6.64L56.94-5.10L58.51-5.23Q59.28-5.28 59.28-4.52L59.28-4.52Q59.28-3.74 58.51-3.74L58.51-3.74L56.90-3.74L56.82 0.02Q56.81 0.65 56.20 0.77L56.20 0.77Q55.57 0.89 55.57 0.26L55.57 0.26ZM50.34 0.26L50.34-4.20Q50.11-3.72 49.86-3.23Q49.61-2.75 49.32-2.24L49.32-2.24Q49.14-1.94 48.88-2.17L48.88-2.17Q48.61-2.40 48.76-2.72L48.76-2.72Q49.48-4.42 50.02-6.36L50.02-6.36L49.50-6.36Q48.98-6.36 48.85-6.86L48.85-6.86L48.85-6.90Q48.73-7.42 49.27-7.48L49.27-7.48L50.34-7.57L50.34-9.17Q50.34-9.90 51.07-9.78L51.07-9.78Q51.80-9.65 51.77-8.93L51.77-8.93L51.74-7.70L52.36-7.76Q52.97-7.82 52.97-7.20L52.97-7.20L52.97-6.98Q52.97-6.36 52.34-6.36L52.34-6.36L51.72-6.36L51.70-5.21Q51.92-5.38 52.18-5.38L52.18-5.38Q52.49-5.38 52.70-5.16L52.70-5.16Q52.92-4.94 52.92-4.62L52.92-4.62Q52.92-4.33 52.70-4.09L52.70-4.09Q52.49-3.86 52.18-3.86L52.18-3.86Q51.89-3.86 51.67-4.04L51.67-4.04L51.58 0.02Q51.56 0.65 50.95 0.77L50.95 0.77Q50.34 0.90 50.34 0.26L50.34 0.26ZM58.36-0.23L58.36-0.23Q57.92-0.23 57.62-0.53L57.62-0.53Q57.32-0.83 57.32-1.26L57.32-1.26Q57.32-1.69 57.62-1.99L57.62-1.99Q57.92-2.29 58.36-2.29L58.36-2.29Q58.80-2.29 59.10-1.99L59.10-1.99Q59.40-1.69 59.40-1.26L59.40-1.26Q59.40-0.83 59.10-0.53L59.10-0.53Q58.80-0.23 58.36-0.23ZM68.92-0.07L68.92-0.07Q67.98-0.92 67.44-2.02L67.44-2.02Q66.53-3.78 66.24-6.14L66.24-6.14L61.36-6.14Q60.85-6.14 60.72-6.65L60.72-6.65Q60.59-7.15 61.12-7.18L61.12-7.18L66.11-7.42Q66.08-7.82 66.06-8.25Q66.04-8.68 66.01-9.13L66.01-9.13Q65.98-9.90 66.74-9.78L66.74-9.78Q67.51-9.65 67.52-8.89L67.52-8.89Q67.55-8.53 67.57-8.18Q67.58-7.84 67.61-7.49L67.61-7.49L70.36-7.62Q71.11-7.66 71.11-6.90L71.11-6.90Q71.11-6.14 70.36-6.14L70.36-6.14L67.73-6.14Q68.04-3.50 69.17-1.98L69.17-1.98Q69.48-1.54 69.85-1.31L69.85-1.31L70.69-2.30Q70.87-2.54 71.15-2.38L71.15-2.38Q71.40-2.21 71.29-1.92L71.29-1.92L70.81-0.66Q70.51 0.12 70.02 0.30Q69.53 0.48 68.92-0.07ZM60.98-0.13L60.98-0.13Q60.83-0.86 61.58-0.92L61.58-0.92Q61.93-0.95 62.26-0.98Q62.59-1.01 62.90-1.03L62.90-1.03L62.90-3.46L61.90-3.46Q61.33-3.46 61.21-4.01L61.21-4.01Q61.09-4.55 61.64-4.60L61.64-4.60L65.24-4.86Q65.98-4.91 65.98-4.19L65.98-4.19Q65.98-3.46 65.24-3.46L65.24-3.46L64.34-3.46L64.22-1.15L66.18-1.37Q66.56-1.40 66.56-1.02L66.56-1.02Q66.56-0.61 66.18-0.53L66.18-0.53Q64.94-0.23 63.87 0.02Q62.80 0.26 61.87 0.46L61.87 0.46Q61.13 0.61 60.98-0.13ZM69.24-7.78L69.24-7.78Q68.83-7.78 68.53-8.08L68.53-8.08Q68.23-8.38 68.23-8.78L68.23-8.78Q68.23-9.20 68.53-9.49L68.53-9.49Q68.84-9.78 69.24-9.78L69.24-9.78Q69.66-9.78 69.96-9.49L69.96-9.49Q70.25-9.20 70.25-8.78L70.25-8.78Q70.25-8.39 69.96-8.08L69.96-8.08Q69.66-7.78 69.24-7.78ZM80.94 0.20L80.94 0.20Q80.83 0.01 80.73-0.16Q80.63-0.32 80.53-0.49L80.53-0.49Q79.04-0.16 77.57 0.14Q76.09 0.43 74.58 0.68L74.58 0.68Q73.72 0.80 73.56-0.04L73.56-0.04L73.52-0.19Q73.38-0.86 74.09-0.90L74.09-0.90L74.78-0.91Q75.17-1.38 75.50-1.89Q75.83-2.40 76.13-2.95L76.13-2.95L73.88-2.95Q73.38-2.95 73.25-3.46L73.25-3.46Q73.12-3.96 73.64-3.98L73.64-3.98L82.19-4.43Q82.94-4.46 82.94-3.71L82.94-3.71Q82.94-2.95 82.19-2.95L82.19-2.95L78.11-2.95Q77.14-1.79 76.19-0.97L76.19-0.97Q77.94-1.07 80.04-1.26L80.04-1.26L79.58-1.92Q79.36-2.24 79.70-2.48L79.70-2.48Q80.05-2.70 80.38-2.44L80.38-2.44Q80.83-2.05 81.28-1.64Q81.73-1.22 82.19-0.77L82.19-0.77Q82.82-0.13 82.08 0.40L82.08 0.40L81.98 0.44Q81.34 0.90 80.94 0.20ZM72.83-5.16L72.83-5.16Q72.60-5.50 72.95-5.74L72.95-5.74Q75.08-7.13 76.78-9.14L76.78-9.14Q77.09-9.52 77.46-9.63Q77.83-9.74 78.29-9.58L78.29-9.58L78.82-9.37Q79.21-9.24 78.91-8.96L78.91-8.96L78.62-8.68Q79.56-8.16 80.52-7.73Q81.48-7.31 82.50-6.97L82.50-6.97Q83.39-6.68 83.05-5.82L83.05-5.82Q82.70-4.91 81.85-5.34L81.85-5.34Q79.80-6.40 77.87-7.97L77.87-7.97Q75.94-6.20 73.43-4.99L73.43-4.99Q73.07-4.81 72.83-5.16ZM77.87-4.63L77.87-4.63Q77.42-4.63 77.09-4.97L77.09-4.97Q76.75-5.29 76.75-5.76L76.75-5.76Q76.75-6.22 77.09-6.55L77.09-6.55Q77.44-6.88 77.87-6.88L77.87-6.88Q78.34-6.88 78.67-6.55L78.67-6.55Q79.00-6.22 79.00-5.76L79.00-5.76Q79.00-5.29 78.67-4.97L78.67-4.97Q78.34-4.63 77.87-4.63ZM94.66 0.42L89.74 0.41Q89.23 0.41 89.10-0.10L89.10-0.10Q88.98-0.60 89.50-0.64L89.50-0.64L91.48-0.79L91.48-5.00L90.08-5.00Q89.56-5.00 89.44-5.52L89.44-5.52Q89.32-6.02 89.83-6.07L89.83-6.07L91.48-6.22L91.48-9.11Q91.48-9.90 92.26-9.78L92.26-9.78Q93.02-9.66 93.01-8.87L93.01-8.87L92.95-6.35L94.31-6.47Q95.08-6.54 95.08-5.77L95.08-5.77Q95.08-5.00 94.31-5.00L94.31-5.00L92.92-5.00L92.81-0.89L94.66-1.02Q95.40-1.08 95.40-0.34L95.40-0.34Q95.40 0.42 94.66 0.42L94.66 0.42ZM86.44 0.25L86.44-3.29Q86.17-3.08 85.89-2.87Q85.61-2.65 85.28-2.42L85.28-2.42Q85.02-2.21 84.82-2.51L84.82-2.51Q84.61-2.77 84.86-3.02L84.86-3.02Q86.50-4.58 87.48-6.32L87.48-6.32L85.46-6.32Q84.97-6.32 84.84-6.82L84.84-6.82Q84.71-7.31 85.22-7.37L85.22-7.37L88.07-7.70Q88.72-7.79 89.14-7.26L89.14-7.26Q89.56-6.73 89.16-6.19L89.16-6.19Q88.55-5.39 87.90-4.68L87.90-4.68L87.90-4.55Q88.18-4.39 88.48-4.26Q88.79-4.13 89.10-4.00L89.10-4.00Q89.82-3.71 89.46-3.05L89.46-3.05Q89.05-2.35 88.50-2.89L88.50-2.89Q88.16-3.22 87.85-3.54L87.85-3.54L87.71 0.08Q87.70 0.70 87.06 0.80L87.06 0.80Q86.44 0.89 86.44 0.25L86.44 0.25ZM87.08-7.87L87.08-7.87Q86.69-7.87 86.38-8.18L86.38-8.18Q86.08-8.48 86.08-8.89L86.08-8.89Q86.08-9.32 86.38-9.61L86.38-9.61Q86.69-9.90 87.08-9.90L87.08-9.90Q87.50-9.90 87.80-9.61L87.80-9.61Q88.10-9.32 88.10-8.89L88.10-8.89Q88.10-8.50 87.82-8.18L87.82-8.18Q87.50-7.87 87.08-7.87Z" transform="translate(-0.8480769230769232, 10.14)"></path></g></g></g></g></g><defs v-gra="od"></defs></g></svg>